<svg width="321" height="64" viewBox="0 0 321 64" fill="none" xmlns="http://www.w3.org/2000/svg">
<path d="M72.959 45.9824C72.959 48.502 72.3584 50.8604 71.1572 53.0576C69.9854 55.2256 68.374 57.1299 66.3232 58.7705C64.3018 60.3818 61.9287 61.6562 59.2041 62.5938C56.4795 63.5312 53.5645 64 50.459 64H0.141602V54.9912H50.459C52.3047 54.9912 54.0479 54.7568 55.6885 54.2881C57.3291 53.8193 58.75 53.1748 59.9512 52.3545C61.1816 51.5342 62.1484 50.582 62.8516 49.498C63.584 48.3848 63.9502 47.2129 63.9502 45.9824V41.5H22.6416C19.5361 41.5 16.6064 40.9141 13.8525 39.7422C11.1279 38.5703 8.74023 36.9736 6.68945 34.9521C4.66797 32.9014 3.07129 30.5137 1.89941 27.7891C0.727539 25.0352 0.141602 22.1055 0.141602 19V0.982422H9.15039V19C9.15039 20.875 9.50195 22.6328 10.2051 24.2734C10.9082 25.9141 11.8604 27.3496 13.0615 28.5801C14.292 29.7812 15.7275 30.7334 17.3682 31.4365C19.0088 32.1396 20.7666 32.4912 22.6416 32.4912H63.9502V0.982422H72.959V45.9824ZM159.18 64H150.171V45.9824H99.8975V37.0176H150.171V9.99121H117.871C114.795 9.99121 111.895 10.5918 109.17 11.793C106.445 12.9648 104.072 14.5762 102.051 16.627C100.029 18.6484 98.418 21.0215 97.2168 23.7461C96.0449 26.4707 95.459 29.3857 95.459 32.4912V64H86.4502V32.4912C86.4502 29.5908 86.8164 26.8076 87.5488 24.1416C88.3105 21.4463 89.3652 18.9414 90.7129 16.627C92.0898 14.2832 93.7305 12.1592 95.6348 10.2549C97.5684 8.32129 99.6924 6.66602 102.007 5.28906C104.351 3.91211 106.855 2.85742 109.521 2.125C112.188 1.36328 114.971 0.982422 117.871 0.982422H159.18V64ZM243.862 45.9824C243.862 48.502 243.394 50.8604 242.456 53.0576C241.519 55.2256 240.229 57.1299 238.589 58.7705C236.978 60.3818 235.073 61.6562 232.876 62.5938C230.708 63.5312 228.379 64 225.889 64H171.133V54.9912H225.889C227.148 54.9912 228.32 54.7568 229.404 54.2881C230.488 53.8193 231.426 53.1748 232.217 52.3545C233.037 51.5342 233.682 50.582 234.15 49.498C234.619 48.3848 234.854 47.2129 234.854 45.9824C234.854 44.752 234.619 43.5947 234.15 42.5107C233.682 41.4268 233.037 40.4746 232.217 39.6543C231.426 38.834 230.488 38.1895 229.404 37.7207C228.32 37.252 227.148 37.0176 225.889 37.0176H189.15C186.689 37.0176 184.36 36.5488 182.163 35.6113C179.966 34.6738 178.047 33.3994 176.406 31.7881C174.795 30.1475 173.506 28.2285 172.539 26.0312C171.602 23.834 171.133 21.4902 171.133 19C171.133 16.5391 171.602 14.21 172.539 12.0127C173.506 9.81543 174.795 7.91113 176.406 6.2998C178.047 4.65918 179.966 3.37012 182.163 2.43262C184.36 1.46582 186.689 0.982422 189.15 0.982422H239.38V9.99121H189.15C187.92 9.99121 186.748 10.2256 185.635 10.6943C184.551 11.1631 183.599 11.8076 182.778 12.6279C181.958 13.4482 181.313 14.415 180.845 15.5283C180.376 16.6123 180.142 17.7695 180.142 19C180.142 20.2305 180.376 21.4023 180.845 22.5156C181.313 23.5996 181.958 24.5518 182.778 25.3721C183.599 26.1924 184.551 26.8369 185.635 27.3057C186.748 27.7744 187.92 28.0088 189.15 28.0088H225.889C228.379 28.0088 230.708 28.4922 232.876 29.459C235.073 30.3965 236.978 31.6855 238.589 33.3262C240.229 34.9375 241.519 36.8418 242.456 39.0391C243.394 41.207 243.862 43.5215 243.862 45.9824Z" fill="#202595"/>
<path d="M320.986 64H311.978V37.0176H267.944V28.0088H311.978V0.982422H320.986V64ZM263.462 64H254.453V0.982422H263.462V64Z" fill="#487BFF"/>
</svg>
